<svg version="1.1" viewBox="0.0 0.0 400.18635170603676 103.55380577427822" fill="none" stroke="none" stroke-linecap="square" stroke-miterlimit="10" xmlns:xlink="http://www.w3.org/1999/xlink" xmlns="http://www.w3.org/2000/svg"><clipPath id="p.0"><path d="m0 0l400.18634 0l0 103.5538l-400.18634 0l0 -103.5538z" clip-rule="nonzero"/></clipPath><g clip-path="url(#p.0)"><path fill="#000000" fill-opacity="0.0" d="m0 0l400.18634 0l0 103.5538l-400.18634 0z" fill-rule="evenodd"/><path fill="#000000" fill-opacity="0.0" d="m0.39370078 0l399.2126 0l0 104.09449l-399.2126 0z" fill-rule="evenodd"/><path stroke="#000000" stroke-width="3.0" stroke-linejoin="round" stroke-linecap="butt" d="m0.39370078 0l399.2126 0l0 104.09449l-399.2126 0z" fill-rule="evenodd"/><path fill="#000000" fill-opacity="0.0" d="m59.00656 17.32021l282.17322 0l0 68.91339l-282.17322 0z" fill-rule="evenodd"/><path fill="#000000" d="m71.28781 74.11896q-2.484375 -1.84375 -3.46875 -4.125q-1.0 -2.296875 -0.265625 -4.5q0.09375 -1.515625 0.78125 -2.984375q0.703125 -1.46875 1.671875 -2.75q0.96875 -1.296875 2.0625 -2.390625q1.109375 -1.109375 1.875 -1.890625q0.203125 -0.578125 0.78125 -1.109375q0.578125 -0.53125 1.125 -0.921875q0.546875 -0.40625 1.0 -0.796875q0.453125 -0.40625 0.5 -0.484375q-0.03125 -0.125 -0.40625 -0.703125q-0.359375 -0.578125 -0.859375 -1.203125q-0.484375 -0.625 -1.0625 -1.296875q-0.578125 -0.671875 -1.1875 -1.59375q0.734375 -0.359375 0.359375 0.171875q-0.359375 0.53125 -1.265625 -0.390625q0.109375 -0.953125 -0.1875 -1.59375q-0.296875 -0.65625 -1.3125 -1.59375q0.46875 -1.140625 0.640625 -1.84375q0.171875 -0.71875 -0.109375 -1.59375q-0.078125 -0.8125 0.125 -1.359375q0.21875 -0.5625 0.390625 -0.90625q0.1875 -0.359375 0.21875 -0.5q0.046875 -0.15625 -0.421875 -1.40625q2.15625 -0.28125 2.859375 -0.078125q0.71875 0.203125 1.21875 0.421875q0.5 0.203125 0.734375 0.28125q0.25 0.078125 2.40625 -0.875q-1.140625 2.046875 -1.015625 1.828125q0.125 -0.21875 0.09375 -0.234375q-0.015625 -0.015625 0.375 0.15625q0.390625 0.15625 -0.359375 0.828125q1.140625 -0.421875 2.296875 0.609375q1.171875 1.03125 2.1875 2.203125q1.015625 1.15625 1.828125 2.296875q0.828125 1.125 0.609375 1.3125q0.5625 -0.6875 2.109375 -1.84375q1.5625 -1.15625 3.234375 -2.390625q1.6875 -1.234375 3.453125 -2.359375q1.765625 -1.140625 3.875 -2.0q1.546875 0.703125 2.1875 1.5q0.65625 0.78125 1.03125 1.578125q0.390625 0.796875 0.671875 1.453125q0.28125 0.65625 1.140625 1.59375q-0.828125 1.65625 -1.3125 2.25q-0.484375 0.59375 -0.78125 1.75q-1.5625 0.625 -3.125 1.609375q-1.375 0.875 -3.5 2.40625q-2.125 1.515625 -4.28125 3.359375q0.078125 0.09375 0.546875 0.859375q0.484375 0.75 0.78125 1.296875q0.375 0.671875 0.46875 0.96875q0.421875 0.296875 0.8125 0.90625q0.390625 0.609375 0.671875 1.125q0.296875 0.515625 0.578125 0.859375q0.28125 0.34375 1.125 0.734375q0.265625 1.25 0.53125 1.953125q0.28125 0.6875 0.546875 1.421875q0.265625 0.734375 0.453125 1.515625q0.203125 0.78125 0.125 1.75q-0.46875 1.59375 -1.234375 2.453125q-0.75 0.84375 -1.1875 2.046875q-0.984375 0.265625 -1.359375 0.390625q-0.359375 0.125 -1.125 0.875l-4.15625 -2.921875q-0.90625 -3.03125 -2.453125 -5.515625q-1.53125 -2.5 -2.390625 -3.5625q-1.40625 1.09375 -3.421875 3.15625q-2.015625 2.046875 -3.5 4.15625q-0.078125 0.96875 -0.296875 1.890625q-0.21875 0.921875 -0.78125 1.609375q-0.546875 0.671875 -1.328125 1.109375q-0.765625 0.4375 -2.328125 1.03125zm52.75 -17.59375q0.34375 0.046875 0.875 0.453125q0.546875 0.40625 0.734375 1.015625q0.203125 0.59375 0.140625 1.109375q-0.046875 0.5 -0.046875 1.390625q-1.796875 1.21875 -4.0 1.546875q-2.203125 0.328125 -4.484375 0.453125q-2.28125 0.109375 -4.375 0.109375q-2.09375 0 -3.265625 0.140625q-2.5 0.265625 -3.8125 0.515625q-1.296875 0.234375 -1.921875 0.53125q-1.359375 -0.078125 -2.0625 -0.453125q-0.703125 -0.390625 -1.140625 -0.90625q-0.421875 -0.53125 -0.671875 -1.078125q-0.25 -0.5625 -0.828125 -1.546875q0.296875 -0.578125 0.25 -0.921875q-0.046875 -0.359375 -2.046875 -1.96875q2.390625 0.078125 2.5 -0.078125q0.125 -0.15625 -1.21875 -1.078125q2.34375 -0.578125 3.25 -0.65625q0.921875 -0.078125 1.734375 -0.125q0.828125 -0.046875 1.5 -0.140625q0.671875 -0.109375 1.296875 -0.421875q2.5625 -0.046875 5.0625 -0.140625q2.5 -0.09375 4.875 -0.1875q0.828125 0.234375 1.859375 0.265625q1.03125 0.015625 2.171875 0.15625q1.140625 0.125 2.25 0.6875q1.109375 0.546875 1.375 1.328125zm8.0 -6.6875q-2.546875 -1.03125 -3.96875 -2.640625q-1.421875 -1.609375 -2.4375 -4.09375q0.703125 -1.875 1.875 -2.859375q1.1875 -1.0 2.578125 -1.65625q1.390625 -0.65625 2.90625 -1.046875q1.515625 -0.390625 3.15625 -0.734375q0.078125 0.9375 -0.359375 -0.09375q-0.421875 -1.046875 0.9375 0.59375q1.3125 -0.859375 3.59375 -1.359375q2.296875 -0.515625 4.625 -0.390625q0.28125 -0.15625 0.875 -0.1875q0.59375 -0.03125 1.109375 -0.03125q0.515625 0 0.875 -0.015625q0.375 -0.015625 1.21875 -0.375q0.5 0.59375 1.0 0.65625q0.5 0.046875 1.15625 0.515625q-0.40625 0.859375 -1.359375 0.5q-0.9375 -0.359375 0.796875 -1.046875q1.078125 0 1.703125 0.375q0.625 0.375 1.046875 0.75q0.421875 0.375 0.625 0.546875q0.203125 0.15625 0.75 0.15625q0.65625 0.796875 1.203125 1.21875q0.546875 0.40625 1.15625 0.9375q0.609375 0.53125 1.078125 1.28125q0.46875 0.75 0.46875 1.8125q-0.71875 -0.03125 -0.28125 -0.296875q0.4375 -0.28125 0.796875 0.625q0.046875 2.140625 -0.625 3.578125q-0.65625 1.4375 -1.609375 2.5625q-0.953125 1.125 -1.953125 2.0625q-1.0 0.921875 -1.296875 1.328125q0 0 0.671875 0.546875q0.671875 0.53125 1.4375 1.109375q0.765625 0.578125 1.515625 1.28125q0.75 0.703125 1.3125 1.640625q-0.296875 0.203125 0.546875 0q0.28125 1.09375 0.515625 1.640625q0.25 0.546875 0.515625 1.15625q0.265625 0.609375 0.34375 1.359375q0.078125 0.734375 -0.78125 0.578125q0.796875 -0.375 0.875 0.359375q0.09375 0.734375 -0.03125 1.359375q-1.171875 1.4375 -1.546875 1.953125q-0.375 0.515625 -0.59375 0.78125q-0.203125 0.265625 -0.421875 0.484375q-0.21875 0.21875 -0.96875 0.859375q-2.609375 1.578125 -5.40625 2.8125q-2.78125 1.234375 -5.4375 1.578125q-0.109375 0.234375 -0.71875 0.515625q-0.59375 0.296875 -1.234375 0.453125q-0.640625 0.15625 -1.296875 0.25q-0.640625 0.09375 -1.421875 0.234375q-1.046875 -0.421875 -0.8125 -0.84375q0.25 -0.40625 0.5625 -0.53125q0.71875 1.25 -0.265625 1.296875q-0.96875 0.0625 -1.765625 -0.234375q-0.796875 -0.28125 -1.5625 -0.75q-0.765625 -0.453125 -0.59375 -1.03125q0.46875 0.34375 0.015625 0.9375q-0.4375 0.578125 -1.296875 1.015625q-0.96875 -0.140625 -1.078125 -0.265625q-0.09375 -0.125 -0.4375 0.546875q-1.203125 -0.59375 -1.453125 -0.875q-0.25 -0.28125 -0.40625 -0.453125q-0.140625 -0.171875 -0.265625 -0.25q-0.109375 -0.09375 -1.46875 -0.5q0.796875 -0.859375 0.5625 -0.96875q-0.234375 -0.109375 -1.625 -0.3125q1.046875 -1.015625 0.5625 -1.390625q-0.484375 -0.375 -0.828125 -1.5q0.0625 -0.515625 0.078125 -0.875q0.03125 -0.375 0.125 -0.796875q0.109375 -0.421875 0.390625 -0.890625q0.28125 -0.484375 0.8125 -0.03125q-0.578125 0.015625 -1.234375 -1.109375q0.859375 -0.671875 0.953125 -0.984375q0.09375 -0.328125 0.21875 -0.859375q0.125 -0.546875 0.375 -1.203125q0.25 -0.65625 1.25 -0.40625q-0.625 0.546875 -0.828125 0.34375q-0.203125 -0.203125 -0.203125 -1.140625q0.796875 -1.3125 1.046875 -2.046875q0.25 -0.75 0.40625 -1.484375q0.15625 -0.75 0.359375 -1.6875q0.203125 -0.9375 0.703125 -2.171875q-0.046875 -0.8125 0.21875 -1.578125q0.28125 -0.765625 0.515625 -1.359375q0.25 -0.609375 0.359375 -1.15625q0.125 -0.5625 0.265625 -0.546875q0.4375 0.078125 0.296875 0.28125q-0.140625 0.1875 -0.25 1.09375q-1.015625 0.890625 -1.78125 0.859375q-0.75 -0.03125 -1.4375 0.234375zm19.71875 8.609375q-1.171875 -0.65625 -2.484375 -0.8125q-1.3125 -0.171875 -2.546875 0.03125q-1.234375 0.1875 -2.453125 0.5625q-1.21875 0.375 -1.9375 0.484375q-0.390625 1.03125 -1.046875 2.9375q-0.640625 1.90625 -0.75 2.203125q0 0 1.34375 -0.4375q1.34375 -0.453125 2.625 -1.015625q1.296875 -0.578125 2.5625 -1.171875q1.28125 -0.59375 2.1875 -0.9375q0.109375 -0.421875 0.734375 -0.859375q0.625 -0.4375 1.046875 -0.703125q0.421875 -0.28125 0.546875 -0.421875q0.125 -0.15625 0.171875 0.140625zm-4.390625 -14.375q-0.78125 -0.03125 -3.453125 0.546875q-2.671875 0.578125 -3.453125 0.9375q0.015625 -0.140625 1.109375 0.53125q1.09375 0.65625 1.328125 1.125q1.25 -0.5 2.828125 -1.796875q1.59375 -1.296875 1.640625 -1.34375zm14.859375 23.46875q-0.609375 1.015625 -0.953125 0.296875q-0.328125 -0.734375 -1.484375 -2.59375l1.796875 0.625q-0.84375 -0.59375 -0.65625 -1.609375q0.203125 -1.015625 0.4375 -1.828125q0.234375 -0.828125 0.359375 -1.4375q0.125 -0.625 -1.140625 -3.90625q2.109375 2.15625 1.796875 1.921875q-0.3125 -0.234375 -0.265625 -0.515625q0.0625 -0.28125 0.03125 -0.640625q-0.015625 -0.359375 -0.09375 -0.875q0.6875 -1.640625 1.015625 -3.125q0.34375 -1.5 0.625 -3.015625q0.28125 -1.53125 0.640625 -3.015625q0.375 -1.5 1.203125 -3.34375q1.453125 -0.21875 2.453125 0.140625q1.0 0.359375 0.6875 0.984375q0.609375 -1.25 1.6875 -2.78125q1.09375 -1.546875 2.28125 -3.125q1.203125 -1.578125 2.8125 -2.875q1.609375 -1.3125 4.4375 -1.609375q1.421875 1.0 2.90625 1.96875q1.484375 0.96875 2.375 2.3125q0.21875 0.140625 0.5625 0.40625q0.359375 0.25 1.171875 0.765625l0 0.8125q0.453125 0.421875 0.953125 1.34375q0.5 0.921875 0.859375 1.875q0.375 0.953125 0.6875 1.859375q0.328125 0.90625 0.90625 2.015625q-0.15625 0.484375 -0.15625 0.53125q0.015625 0.046875 0.078125 0.25q0.0625 0.1875 0.125 0.53125q0.0625 0.328125 0.0625 0.828125q-0.21875 2.875 -1.84375 4.609375q-1.609375 1.71875 -3.765625 2.734375q-2.15625 1.015625 -4.46875 1.703125q-2.296875 0.671875 -4.234375 0.71875q-0.09375 -0.1875 0.71875 -0.59375q0.8125 -0.40625 -0.234375 0.703125q1.5 0.171875 2.265625 0.6875q0.765625 0.5 1.375 0.8125q0.609375 0.3125 1.359375 0.53125q0.765625 0.21875 2.1875 0.546875q1.46875 0.328125 2.28125 0.53125q0.8125 0.203125 1.4375 0.328125q0.625 0.109375 1.359375 0.203125q0.734375 0.078125 2.328125 0.265625q0.890625 0.890625 1.28125 1.734375q0.390625 0.828125 0.5625 1.671875q0.171875 0.828125 0.0625 1.703125q-0.09375 0.859375 -0.984375 0.90625q-0.1875 -0.140625 -0.03125 -0.546875q0.15625 -0.421875 2.796875 0.109375q-2.0625 1.484375 -2.25 1.75q-0.1875 0.25 -0.453125 0.625q-0.265625 0.375 -0.734375 0.796875q-0.453125 0.4375 -1.125 0.5q-1.84375 0.71875 -4.65625 0.0625q-2.8125 -0.65625 -6.953125 -2.21875q-2.046875 -0.765625 -3.359375 -1.390625q-1.3125 -0.640625 -2.3125 -1.25q-0.984375 -0.625 -1.8125 -1.328125q-0.828125 -0.71875 -1.265625 -2.140625q0.125 -0.046875 0.4375 0.390625q0.328125 0.4375 -0.5 -0.109375q0.53125 1.96875 -0.015625 3.265625q-0.53125 1.28125 -1.921875 3.09375q-0.8125 -0.15625 -0.9375 -0.015625q-0.109375 0.125 -0.75 0.515625q-0.984375 0.203125 -1.421875 -0.015625q-0.421875 -0.203125 -0.625 -0.359375q-0.203125 -0.15625 -0.28125 -0.1875q-0.0625 -0.046875 -1.046875 0.03125q-0.390625 -1.15625 -0.328125 -1.296875q0.0625 -0.140625 -1.421875 0.171875q0.53125 -1.625 0.515625 -1.75q-0.015625 -0.140625 -0.109375 -0.375q-0.078125 -0.234375 -0.203125 -0.6875q-0.109375 -0.46875 0.875 -0.609375zm16.25 -20.390625q-0.234375 0.328125 -1.015625 1.09375q-0.765625 0.75 -1.453125 1.484375q-0.6875 0.71875 -1.171875 1.515625q-0.484375 0.78125 -0.515625 0.59375q0.5625 -0.125 2.65625 -0.953125q2.09375 -0.84375 3.296875 -1.34375q-0.09375 -0.65625 -0.890625 -1.5q-0.78125 -0.859375 -0.90625 -0.890625zm24.921875 25.453125q-2.078125 0.28125 -3.953125 -0.234375q-1.875 -0.515625 -3.359375 -1.609375q-1.46875 -1.09375 -2.515625 -2.5625q-1.046875 -1.46875 -1.734375 -3.25q-0.46875 -3.5 0.21875 -6.25q0.703125 -2.765625 2.015625 -5.0625q1.328125 -2.3125 2.96875 -4.265625q1.65625 -1.953125 3.640625 -4.3125q0.546875 0.609375 0.421875 0.484375q-0.109375 -0.140625 0.015625 -0.3125q0.140625 -0.1875 0.453125 -0.53125q0.328125 -0.359375 0.671875 -0.140625q-0.140625 -0.46875 0.25 -0.828125q0.40625 -0.375 0.75 -0.625q0.359375 -0.265625 0.578125 -0.46875q0.234375 -0.21875 0.609375 -0.90625q0.734375 -0.140625 0.96875 -0.296875q0.234375 -0.15625 0.53125 -0.4375q0.3125 -0.28125 0.71875 -0.578125q0.421875 -0.296875 0.6875 -0.015625l-0.34375 -0.765625q1.40625 -0.640625 1.796875 -1.109375q0.390625 -0.46875 1.296875 -1.6875q1.0 -0.09375 1.28125 -0.09375q0.296875 0 0.390625 -0.015625q0.25 -0.46875 0.703125 -0.9375q0.46875 -0.46875 1.75 -1.3125q1.0625 0.546875 1.9375 0.625q0.875 0.078125 2.046875 1.25q0.046875 0.59375 0.1875 0.75q0.140625 0.140625 0.4375 0.390625q0.3125 0.234375 0.78125 0.640625q0.46875 0.390625 -0.125 1.15625q-0.234375 -0.1875 -0.265625 -0.59375q-0.015625 -0.421875 1.453125 -0.125q0.234375 0.921875 0.296875 1.09375q0.0625 0.15625 0.171875 0.328125q0.109375 0.171875 0.25 0.46875q0.15625 0.296875 0.375 1.046875q-0.359375 0.828125 -0.609375 1.671875q-0.234375 0.828125 -1.0625 0.703125q-0.15625 -0.375 0.359375 -0.625q0.515625 -0.265625 0.671875 0.875q0.09375 0.796875 -0.484375 0.84375q1.5625 1.71875 2.640625 4.140625q1.078125 2.40625 2.59375 4.859375q-0.125 0.8125 0 1.3125q0.140625 0.5 0.375 1.09375q0.25 0.578125 0.5 1.25q0.265625 0.65625 0.375 1.390625q0.109375 0.9375 0 1.96875q-0.09375 1.015625 -0.421875 1.96875q-0.3125 0.953125 -0.875 1.828125q-0.5625 0.875 -1.21875 1.28125q-0.765625 0.96875 -1.9375 1.578125q-1.171875 0.59375 -2.09375 1.390625q-0.875 0.484375 -1.703125 0.671875q-0.8125 0.171875 -1.4375 0.328125q-0.546875 0.328125 -1.453125 0.703125q-0.890625 0.375 -1.84375 0.671875q-0.9375 0.296875 -1.9375 0.484375q-0.984375 0.1875 -1.609375 0.109375q-1.546875 0.546875 -3.28125 0.796875q-1.734375 0.265625 -3.90625 -0.203125zm1.140625 -17.546875q-0.078125 1.046875 -0.75 1.953125q-0.65625 0.90625 -1.234375 1.75q-0.578125 0.84375 -0.96875 1.734375q-0.375 0.875 -0.40625 1.546875q0.34375 0.296875 1.421875 0.4375q1.09375 0.140625 2.375 0.03125q1.296875 -0.125 2.671875 -0.359375q1.390625 -0.234375 2.125 0.34375q-0.578125 -1.0 0.75 -1.0q1.71875 -0.15625 3.3125 -1.03125q1.609375 -0.875 3.125 -1.640625q0.15625 -0.390625 0.46875 -0.734375q0.3125 -0.359375 0.328125 -0.515625q-0.15625 -0.28125 -0.265625 -0.6875q-0.09375 -0.40625 -0.09375 -0.765625q-1.09375 -1.515625 -1.984375 -3.515625q-0.890625 -2.0 -1.15625 -3.984375q0.703125 0.5625 -0.03125 1.171875q-0.71875 0.609375 -0.84375 -0.546875q0.5625 0.609375 -0.015625 0.9375q-0.5625 0.328125 -1.140625 0.328125q-0.578125 0 -1.09375 -0.203125q-0.515625 -0.203125 -0.28125 -0.75q-1.03125 1.546875 -2.609375 2.734375q-1.5625 1.171875 -2.90625 2.859375q-1.0625 0.640625 -1.0625 0.078125q0.015625 -0.5625 0.265625 -0.171875zm23.875 7.484375q-0.53125 -0.15625 -0.1875 -0.0625q0.359375 0.078125 -0.390625 0.421875q-0.421875 -1.515625 0.21875 -1.765625q0.65625 -0.265625 0.890625 0.28125q-0.375 -2.71875 0.375 -5.109375q0.75 -2.390625 1.609375 -4.609375q0.875 -2.21875 1.71875 -4.40625q0.859375 -2.1875 1.46875 -5.03125q0.703125 -0.6875 1.0625 -1.453125q0.359375 -0.765625 0.765625 -1.671875q0.421875 -0.90625 1.046875 -1.828125q0.640625 -0.9375 2.0625 -1.71875q0.84375 0.09375 1.265625 0.234375q0.421875 0.140625 0.71875 0.28125q0.3125 0.125 0.59375 0.203125q0.28125 0.0625 1.0625 0.0625q0.5625 0.703125 0.6875 0.984375q0.125 0.28125 -0.25 0.40625l0.921875 -0.515625q1.078125 0.921875 1.625 1.84375q0.5625 0.90625 0.796875 1.9375q0.234375 1.015625 -0.109375 2.125q-0.328125 1.109375 -1.578125 1.046875q0.65625 0.140625 0.546875 0.453125q-0.109375 0.3125 -0.21875 0.34375q-0.09375 0.015625 -0.234375 -0.09375q-0.140625 -0.125 0.96875 0.375q-1.25 1.015625 -1.609375 1.546875q-0.34375 0.53125 -0.59375 1.15625q-0.25 0.609375 -0.40625 1.25q-0.140625 0.625 -0.90625 0.484375q0.453125 -1.578125 2.296875 -2.8125q1.859375 -1.25 3.21875 -2.3125q1.0625 -0.75 1.875 -1.421875q0.828125 -0.6875 1.703125 -1.296875q0.875 -0.609375 1.78125 -1.140625q0.921875 -0.546875 1.921875 -1.25q0.9375 -0.359375 1.421875 -0.1875q0.484375 0.171875 0.140625 0.9375q-0.265625 0.21875 -0.78125 0.34375q-0.5 0.125 -0.265625 -1.6875q1.328125 -0.390625 1.9375 -0.703125q0.609375 -0.3125 2.0 -0.875q0.96875 1.046875 1.296875 1.484375q0.34375 0.421875 1.296875 0.46875q0.421875 0.9375 0.71875 1.15625q0.296875 0.21875 0.75 0.546875q0.46875 0.328125 0.875 0.921875q0.421875 0.578125 0.5 1.96875q-0.328125 0.640625 -0.5625 1.046875q-0.234375 0.40625 -0.453125 1.21875q-1.390625 1.265625 -2.59375 2.078125q-1.1875 0.796875 -2.390625 1.515625q-1.203125 0.703125 -2.421875 1.4375q-1.21875 0.734375 -2.3125 1.578125q-0.28125 0.421875 -0.78125 0.8125q-0.484375 0.390625 -0.9375 0.6875q-0.4375 0.296875 -0.734375 0.546875q-0.296875 0.25 -0.703125 1.078125q-0.734375 0 -0.8125 0.015625q-0.078125 0.015625 -0.1875 -0.578125q0.3125 0.71875 -0.015625 0.9375q-0.328125 0.21875 -0.25 -0.09375q0.59375 1.1875 1.765625 2.0q1.171875 0.8125 2.71875 1.203125q1.546875 0.375 3.453125 0.421875q1.90625 0.046875 3.90625 0.046875q0.046875 0.75 -0.40625 0.046875q-0.453125 -0.71875 1.203125 -0.4375q0.921875 0.296875 1.46875 0.6875q0.5625 0.390625 1.015625 0.796875q0.453125 0.390625 0.84375 0.78125q0.390625 0.390625 1.25 1.109375q-0.125 3.046875 -1.515625 4.65625q-1.375 1.59375 -3.734375 2.609375q-2.984375 0.09375 -5.109375 -0.140625q-2.109375 -0.25 -4.171875 -1.09375q-0.5 -0.171875 -0.59375 -0.578125q-0.078125 -0.421875 -0.15625 -0.1875q0.015625 0.015625 -0.421875 0.0625q-0.421875 0.03125 -1.0 -0.203125q-0.5 -0.234375 -1.515625 -0.90625q-1.0 -0.6875 -1.828125 -1.28125q-1.015625 -0.828125 -1.984375 -1.640625q-0.953125 -0.8125 -1.75 -1.875q0.421875 -0.328125 0.15625 -0.0625q-0.265625 0.265625 -0.21875 -0.375q-0.9375 1.28125 -1.984375 2.71875q-1.03125 1.421875 -2.078125 3.015625q-1.03125 1.578125 -2.28125 3.078125q-1.25 1.5 -3.390625 2.421875q-0.921875 0 -1.453125 -0.234375q-0.53125 -0.234375 -0.90625 -0.515625q-0.359375 -0.296875 -0.609375 -0.453125q-0.234375 -0.171875 -1.234375 -0.40625q0 -1.25 -0.21875 -1.71875q-0.203125 -0.46875 -0.484375 -1.0q-0.265625 -0.53125 -0.46875 -1.296875q-0.1875 -0.765625 0.4375 -0.90625q-0.25 0.296875 -1.75 -0.59375q0.90625 -0.90625 0.90625 -0.859375q0 0.046875 -0.125 -0.203125q-0.125 -0.25 -0.25 -0.8125q-0.125 -0.5625 0.53125 -1.640625q0.59375 0.671875 0.140625 0.375q-0.453125 -0.296875 0.390625 -0.203125zm38.640625 7.984375q-0.546875 -0.5625 -0.6875 -1.0q-0.140625 -0.4375 -0.84375 -0.8125q-0.15625 -1.1875 -0.328125 -2.09375q-0.15625 -0.90625 -0.328125 -1.890625q-0.171875 -0.984375 -0.25 -2.03125q-0.0625 -1.046875 0.09375 -2.0q0.140625 -0.578125 0.390625 -1.015625q0.25 -0.453125 0.421875 -0.75q0.1875 -0.3125 0.25 -0.5q0.0625 -0.1875 -0.234375 -1.34375q1.171875 0.375 1.0625 -0.28125q-0.109375 -0.671875 0.6875 0.125q-0.328125 -0.875 0.0625 -1.796875q0.390625 -0.9375 0.8125 -1.796875q0.4375 -0.859375 0.859375 -1.6875q0.4375 -0.84375 0.578125 -1.25q-0.484375 -0.453125 -0.890625 -1.453125q-0.40625 -1.015625 -0.609375 -1.96875q-0.203125 -0.96875 -0.296875 -1.859375q-0.09375 -0.890625 -0.484375 -2.1875q0.9375 -1.40625 1.859375 -2.03125q0.9375 -0.625 1.984375 -1.015625q1.0625 -0.390625 2.21875 -0.609375q1.15625 -0.21875 2.359375 -0.484375q2.25 -0.703125 4.0625 -1.109375q1.828125 -0.40625 3.53125 -0.65625q1.71875 -0.265625 3.546875 -0.46875q1.828125 -0.21875 5.03125 -0.796875q-0.484375 1.09375 -0.4375 0.6875q0.046875 -0.40625 0.890625 -0.40625q-0.15625 0.78125 -0.28125 1.1875q-0.859375 0.09375 -0.890625 -0.015625q-0.015625 -0.125 -0.015625 -1.3125q1.234375 0 1.484375 0.078125q0.265625 0.0625 0.1875 0.359375q-0.078125 0.28125 -0.15625 0.375q-0.078125 0.078125 0.28125 0q1.328125 0.296875 2.078125 0.84375q0.765625 0.53125 2.28125 1.1875q0.109375 1.109375 0.078125 1.40625q-0.03125 0.28125 -0.078125 0.421875q-0.03125 0.125 -0.03125 0.203125q0 0.078125 0.15625 0.734375q-1.0625 1.796875 -2.171875 2.609375q-1.09375 0.796875 -2.28125 1.21875q-1.1875 0.40625 -2.4375 0.609375q-1.234375 0.1875 -2.453125 0.390625q-1.203125 0.203125 -2.375 0.5625q-1.171875 0.34375 -2.6875 1.28125q-0.625 -0.234375 -0.78125 -0.21875q-0.140625 0 -0.4375 0.09375q-0.28125 0.078125 -0.796875 0.203125q-0.5 0.109375 -0.796875 0.0625q-0.1875 0.171875 -0.796875 0.34375q-0.59375 0.171875 -0.75 -0.359375q0.625 0.03125 0.59375 0.5625q-0.015625 0.53125 -0.421875 0.453125q1.5 -0.203125 3.859375 -0.40625q2.359375 -0.21875 5.53125 -0.34375q0.3125 1.59375 -0.046875 1.640625q-0.34375 0.046875 -0.46875 -0.1875q0.640625 -0.25 1.046875 0.21875q0.421875 0.453125 0.765625 0.796875q0.34375 0.34375 0.578125 0.484375q0.234375 0.140625 1.140625 0.078125q0.59375 1.203125 0.71875 1.9375q0.140625 0.71875 -0.328125 1.84375q-1.171875 0.765625 -2.078125 1.40625q-0.90625 0.640625 -1.953125 1.203125q-1.03125 0.5625 -2.28125 0.921875q-1.25 0.359375 -2.703125 0.3125q-0.21875 0 -0.5625 0q-0.328125 0 -0.28125 -0.640625q-0.21875 0.703125 -1.0 0.640625q-0.78125 -0.078125 -1.421875 0.21875q-0.875 -0.3125 -1.75 -0.3125q-0.859375 0 -0.984375 -0.140625q-0.359375 0.65625 -1.078125 1.9375q-0.71875 1.28125 -0.8125 1.546875q0.59375 0.09375 1.796875 0.046875q1.203125 -0.046875 2.296875 -0.1875q1.109375 -0.140625 2.34375 -0.28125q1.234375 -0.140625 2.796875 -0.09375q1.09375 -0.53125 2.65625 -0.75q1.5625 -0.21875 3.078125 -0.703125q1.0625 0.3125 1.484375 0.84375q0.4375 0.515625 0.71875 0.890625q0.28125 0.359375 0.390625 0.453125q0.109375 0.09375 0.671875 -0.015625q0.8125 0.8125 0.90625 1.28125q0.09375 0.46875 0.125 0.625q0.046875 0.15625 -0.125 0.1875q-0.171875 0.03125 1.625 -0.5q-1.78125 3.65625 -3.03125 4.765625q-1.234375 1.109375 -2.75 1.703125q-1.515625 0.59375 -3.28125 0.859375q-1.765625 0.265625 -3.859375 0.640625q-0.765625 0.140625 -1.15625 0.015625q-0.390625 -0.140625 -0.515625 -0.140625q-1.25 0.21875 -3.109375 0.453125q-1.859375 0.25 -3.78125 0.203125q-1.921875 -0.046875 -3.796875 -0.515625q-1.859375 -0.46875 -3.1875 -1.734375zm29.28125 -2.984375q-0.609375 1.015625 -0.953125 0.296875q-0.328125 -0.734375 -1.484375 -2.59375l1.796875 0.625q-0.84375 -0.59375 -0.65625 -1.609375q0.203125 -1.015625 0.4375 -1.828125q0.234375 -0.828125 0.359375 -1.4375q0.125 -0.625 -1.140625 -3.90625q2.109375 2.15625 1.796875 1.921875q-0.3125 -0.234375 -0.265625 -0.515625q0.0625 -0.28125 0.03125 -0.640625q-0.015625 -0.359375 -0.09375 -0.875q0.6875 -1.640625 1.015625 -3.125q0.34375 -1.5 0.625 -3.015625q0.28125 -1.53125 0.640625 -3.015625q0.375 -1.5 1.203125 -3.34375q1.453125 -0.21875 2.453125 0.140625q1.0 0.359375 0.6875 0.984375q0.609375 -1.25 1.6875 -2.78125q1.09375 -1.546875 2.28125 -3.125q1.203125 -1.578125 2.8125 -2.875q1.609375 -1.3125 4.4375 -1.609375q1.421875 1.0 2.90625 1.96875q1.484375 0.96875 2.375 2.3125q0.21875 0.140625 0.5625 0.40625q0.359375 0.25 1.171875 0.765625l0 0.8125q0.453125 0.421875 0.953125 1.34375q0.5 0.921875 0.859375 1.875q0.375 0.953125 0.6875 1.859375q0.328125 0.90625 0.90625 2.015625q-0.15625 0.484375 -0.15625 0.53125q0.015625 0.046875 0.078125 0.25q0.0625 0.1875 0.125 0.53125q0.0625 0.328125 0.0625 0.828125q-0.21875 2.875 -1.84375 4.609375q-1.609375 1.71875 -3.765625 2.734375q-2.15625 1.015625 -4.46875 1.703125q-2.296875 0.671875 -4.234375 0.71875q-0.09375 -0.1875 0.71875 -0.59375q0.8125 -0.40625 -0.234375 0.703125q1.5 0.171875 2.265625 0.6875q0.765625 0.5 1.375 0.8125q0.609375 0.3125 1.359375 0.53125q0.765625 0.21875 2.1875 0.546875q1.46875 0.328125 2.28125 0.53125q0.8125 0.203125 1.4375 0.328125q0.625 0.109375 1.359375 0.203125q0.734375 0.078125 2.328125 0.265625q0.890625 0.890625 1.28125 1.734375q0.390625 0.828125 0.5625 1.671875q0.171875 0.828125 0.0625 1.703125q-0.09375 0.859375 -0.984375 0.90625q-0.1875 -0.140625 -0.03125 -0.546875q0.15625 -0.421875 2.796875 0.109375q-2.0625 1.484375 -2.25 1.75q-0.1875 0.25 -0.453125 0.625q-0.265625 0.375 -0.734375 0.796875q-0.453125 0.4375 -1.125 0.5q-1.84375 0.71875 -4.65625 0.0625q-2.8125 -0.65625 -6.953125 -2.21875q-2.046875 -0.765625 -3.359375 -1.390625q-1.3125 -0.640625 -2.3125 -1.25q-0.984375 -0.625 -1.8125 -1.328125q-0.828125 -0.71875 -1.265625 -2.140625q0.125 -0.046875 0.4375 0.390625q0.328125 0.4375 -0.5 -0.109375q0.53125 1.96875 -0.015625 3.265625q-0.53125 1.28125 -1.921875 3.09375q-0.8125 -0.15625 -0.9375 -0.015625q-0.109375 0.125 -0.75 0.515625q-0.984375 0.203125 -1.421875 -0.015625q-0.421875 -0.203125 -0.625 -0.359375q-0.203125 -0.15625 -0.28125 -0.1875q-0.0625 -0.046875 -1.046875 0.03125q-0.390625 -1.15625 -0.328125 -1.296875q0.0625 -0.140625 -1.421875 0.171875q0.53125 -1.625 0.515625 -1.75q-0.015625 -0.140625 -0.109375 -0.375q-0.078125 -0.234375 -0.203125 -0.6875q-0.109375 -0.46875 0.875 -0.609375zm16.25 -20.390625q-0.234375 0.328125 -1.015625 1.09375q-0.765625 0.75 -1.453125 1.484375q-0.6875 0.71875 -1.171875 1.515625q-0.484375 0.78125 -0.515625 0.59375q0.5625 -0.125 2.65625 -0.953125q2.09375 -0.84375 3.296875 -1.34375q-0.09375 -0.65625 -0.890625 -1.5q-0.78125 -0.859375 -0.90625 -0.890625z" fill-rule="nonzero"/></g></svg>