<svg version="1.1" viewBox="0.0 0.0 123.31233595800525 122.83989501312335" fill="none" stroke="none" stroke-linecap="square" stroke-miterlimit="10" xmlns:xlink="http://www.w3.org/1999/xlink" xmlns="http://www.w3.org/2000/svg"><clipPath id="p.0"><path d="m0 0l123.31233 0l0 122.8399l-123.31233 0l0 -122.8399z" clip-rule="nonzero"/></clipPath><g clip-path="url(#p.0)"><path fill="#000000" fill-opacity="0.0" d="m0 0l123.31233 0l0 122.8399l-123.31233 0z" fill-rule="evenodd"/><path fill="#000000" fill-opacity="0.0" d="m0 61.417324l22.742834 -22.742836l0 11.371418l9.241175 0l0 -18.18444l18.298119 0l0 -9.118631l-11.371418 0l22.742832 -22.742834l22.742836 22.742834l-11.371414 0l0 9.118631l18.298111 0l0 18.18444l9.24118 0l0 -11.371418l22.742828 22.742836l-22.742828 22.742832l0 -11.371414l-9.24118 0l0 18.18444l-18.298111 0l0 9.118629l11.371414 0l-22.742836 22.742836l-22.742832 -22.742836l11.371418 0l0 -9.118629l-18.298119 0l0 -18.18444l-9.241175 0l0 11.371414z" fill-rule="evenodd"/><path stroke="#990000" stroke-width="4.0" stroke-linejoin="round" stroke-linecap="butt" d="m0 61.417324l22.742834 -22.742836l0 11.371418l9.241175 0l0 -18.18444l18.298119 0l0 -9.118631l-11.371418 0l22.742832 -22.742834l22.742836 22.742834l-11.371414 0l0 9.118631l18.298111 0l0 18.18444l9.24118 0l0 -11.371418l22.742828 22.742836l-22.742828 22.742832l0 -11.371414l-9.24118 0l0 18.18444l-18.298111 0l0 9.118629l11.371414 0l-22.742836 22.742836l-22.742832 -22.742836l11.371418 0l0 -9.118629l-18.298119 0l0 -18.18444l-9.241175 0l0 11.371414z" fill-rule="evenodd"/><path fill="#000000" fill-opacity="0.0" d="m27.748032 13.228347l67.874016 0l0 97.82677l-67.874016 0z" fill-rule="evenodd"/><path fill="#990000" d="m41.12303 85.965225q-3.3125 -2.453125 -4.640625 -5.5q-1.328125 -3.0625 -0.34375 -6.0q0.125 -2.03125 1.046875 -3.984375q0.9375 -1.953125 2.21875 -3.671875q1.296875 -1.71875 2.765625 -3.1875q1.46875 -1.46875 2.5 -2.5q0.25 -0.78125 1.03125 -1.484375q0.78125 -0.703125 1.5 -1.234375q0.734375 -0.53125 1.34375 -1.0625q0.609375 -0.53125 0.671875 -0.65625q-0.046875 -0.171875 -0.546875 -0.9375q-0.484375 -0.765625 -1.15625 -1.59375q-0.65625 -0.84375 -1.421875 -1.734375q-0.765625 -0.90625 -1.578125 -2.125q0.96875 -0.46875 0.484375 0.234375q-0.484375 0.6875 -1.6875 -0.515625q0.15625 -1.28125 -0.25 -2.140625q-0.390625 -0.859375 -1.75 -2.125q0.625 -1.5 0.84375 -2.453125q0.234375 -0.96875 -0.140625 -2.125q-0.109375 -1.078125 0.171875 -1.8125q0.296875 -0.734375 0.53125 -1.203125q0.234375 -0.46875 0.28125 -0.671875q0.0625 -0.203125 -0.5625 -1.859375q2.859375 -0.390625 3.8125 -0.109375q0.953125 0.265625 1.625 0.546875q0.671875 0.28125 0.984375 0.390625q0.328125 0.09375 3.1875 -1.171875q-1.484375 2.71875 -1.34375 2.4375q0.15625 -0.28125 0.125 -0.296875q-0.03125 -0.015625 0.484375 0.1875q0.53125 0.203125 -0.453125 1.109375q1.515625 -0.5625 3.046875 0.8125q1.546875 1.375 2.90625 2.9375q1.375 1.546875 2.46875 3.0625q1.09375 1.515625 0.796875 1.75q0.75 -0.90625 2.8125 -2.453125q2.078125 -1.546875 4.3125 -3.1875q2.25 -1.640625 4.59375 -3.15625q2.359375 -1.515625 5.1875 -2.640625q2.046875 0.921875 2.90625 1.984375q0.875 1.046875 1.390625 2.109375q0.515625 1.046875 0.875 1.921875q0.375 0.875 1.515625 2.140625q-1.09375 2.1875 -1.734375 2.984375q-0.640625 0.78125 -1.0625 2.34375q-2.0625 0.828125 -4.15625 2.140625q-1.828125 1.15625 -4.671875 3.203125q-2.828125 2.03125 -5.703125 4.484375q0.109375 0.140625 0.734375 1.140625q0.640625 1.0 1.046875 1.71875q0.484375 0.90625 0.625 1.3125q0.5625 0.40625 1.078125 1.21875q0.515625 0.796875 0.90625 1.484375q0.390625 0.6875 0.75 1.15625q0.375 0.453125 1.5 0.96875q0.375 1.671875 0.734375 2.609375q0.359375 0.921875 0.703125 1.90625q0.359375 0.96875 0.609375 2.015625q0.265625 1.046875 0.171875 2.328125q-0.625 2.109375 -1.640625 3.25q-1.015625 1.140625 -1.59375 2.734375q-1.3125 0.359375 -1.8125 0.53125q-0.484375 0.15625 -1.5 1.171875l-5.53125 -3.90625q-1.203125 -4.03125 -3.265625 -7.359375q-2.0625 -3.328125 -3.1875 -4.75q-1.890625 1.46875 -4.578125 4.21875q-2.671875 2.734375 -4.65625 5.53125q-0.109375 1.296875 -0.40625 2.53125q-0.296875 1.234375 -1.03125 2.140625q-0.734375 0.890625 -1.765625 1.46875q-1.03125 0.59375 -3.109375 1.390625z" fill-rule="nonzero"/></g></svg>